<svg id="Camada_1" data-name="Camada 1" xmlns="http://www.w3.org/2000/svg" viewBox="0 0 385.61 205.01"><defs><style>.cls-1{fill:#fff;}</style></defs><title>logo_flying_bastards</title><path d="M7012.72,7080.74v-30.82a5.72,5.72,0,0,0-.24-2.17q-.12-.24-.81-.48a15.4,15.4,0,0,0-2.7-.48,37.21,37.21,0,0,0-4.41-.24V7046h37.08v15h-.78a18,18,0,0,0-2.33-8.86q-3.11-5.6-8.79-5.6-3.89,0-5.47.12a15.21,15.21,0,0,0-3.2.6l-.54.24a4.12,4.12,0,0,0-.42,2.42V7064q6.38,0,7.94-1.26,2.51-2,3.22-10.32h.72v23.64h-.72q0-8.1-2.75-10.14-1.73-1.32-8.41-1.32v16.13a6.25,6.25,0,0,0,.24,2.23q.12.24.84.51a12.37,12.37,0,0,0,2.79.45q2.07.18,5.61.18v.6h-25v-.6q2.58,0,4.47-.18a11,11,0,0,0,2.58-.45,1.66,1.66,0,0,0,.9-.66A5.89,5.89,0,0,0,7012.72,7080.74Z" transform="translate(-7004.56 -6923.03)"/><path d="M7053.52,7081.83a4.23,4.23,0,0,0,.18,1.56,1.24,1.24,0,0,0,.54.36,20.22,20.22,0,0,0,5.22.42v.54h-17.52v-.54q1.74,0,3.15-.12a9.83,9.83,0,0,0,2.43-.48q.36-.3.36-1.75v-32.14a2.92,2.92,0,0,0-.36-1.69,1.61,1.61,0,0,0-.72-.6,23.06,23.06,0,0,0-4.8-.3v-.54l11.52-1Z" transform="translate(-7004.56 -6923.03)"/><path d="M7072.78,7090.46a20.09,20.09,0,0,1-2.34,5.11,3.88,3.88,0,0,1-3.24,1.68,10.12,10.12,0,0,1-3.72-.51,2.52,2.52,0,0,1-1.53-1.74,8,8,0,0,1-.33-2,3.17,3.17,0,0,1,3.09-3.06,2.8,2.8,0,0,1,2,.87,3.1,3.1,0,0,1,.88,2.31,2.55,2.55,0,0,1-2.42,2.88,1.49,1.49,0,0,0,.87.53,6.4,6.4,0,0,0,.93.07,3.26,3.26,0,0,0,2.64-1.24,15.75,15.75,0,0,0,2.16-4.55l1.92-5.43-8.67-23.51q-.54-1.38-.66-1.62-.36-.6-2.1-.6h-1.38v-.6h13.74v.6l-2.79,0q-1.41,0-1.41.75l.36,1.2,5.8,15.47,4-11.8a10.93,10.93,0,0,0,.72-3.25q0-2.41-4-2.41v-.6h10v.6a5.17,5.17,0,0,0-3.54,1.11q-1.26,1.11-2.82,5.56Z" transform="translate(-7004.56 -6923.03)"/><path d="M7099.42,7059.09v22.73a4.25,4.25,0,0,0,.18,1.57,1.23,1.23,0,0,0,.54.36,20.2,20.2,0,0,0,5.22.42v.54h-17.52v-.54q1.74,0,3.15-.12a9.8,9.8,0,0,0,2.43-.48q.36-.3.36-1.75v-18.74a2.73,2.73,0,0,0-.24-1.45,1.8,1.8,0,0,0-.78-.73,24,24,0,0,0-4.92-.3v-.54Zm-3.15-13.56a3.22,3.22,0,0,1,2.38,1,3.5,3.5,0,0,1,0,4.8,3.43,3.43,0,0,1-4.76,0,3.5,3.5,0,0,1,0-4.8A3.21,3.21,0,0,1,7096.27,7045.53Z" transform="translate(-7004.56 -6923.03)"/><path d="M7118,7070v11.82a4.27,4.27,0,0,0,.18,1.57,1.25,1.25,0,0,0,.57.36,6.79,6.79,0,0,0,1.62.3,20.39,20.39,0,0,0,2.07.12v.54H7107v-.54q1.32,0,2.61-.12a9.57,9.57,0,0,0,2.31-.48q.36-.3.36-1.75v-18.27q0-.54,0-1.09a1.47,1.47,0,0,0-.27-.84l-.36-.6q-.6-.42-4.56-.42v-.54l10.86-1v7.65a11.78,11.78,0,0,1,1.56-4.54q1.68-2.75,3.54-3t2.4-.21a8,8,0,0,1,6,2.29,6.36,6.36,0,0,1,1.86,4.57v15.94a4.23,4.23,0,0,0,.18,1.56,1.28,1.28,0,0,0,.6.36,7.76,7.76,0,0,0,1.74.3q1.26.12,2.4.12v.54h-15.36v-.54q1,0,2.22-.12a8.62,8.62,0,0,0,2.22-.48q.36-.3.36-1.75v-15.26a15.36,15.36,0,0,0-.48-4.4q-.78-2.47-2.88-2.47-2.76,0-4.5,3.44A21.17,21.17,0,0,0,7118,7070Z" transform="translate(-7004.56 -6923.03)"/><path d="M7145.08,7074.51a7.77,7.77,0,0,1-3-2.52,6.58,6.58,0,0,1-1.08-3.84,8,8,0,0,1,3.48-6.54,11.21,11.21,0,0,1,7-2.46,10.39,10.39,0,0,1,2.4.3,13.41,13.41,0,0,1,2.34.78v-1.44q0-2.82,1-3.69a4.49,4.49,0,0,1,3-.87,2.23,2.23,0,0,1,1.56.61,2.05,2.05,0,0,1,.66,1.58q0,2.13-2,2.13t-2-1.95a1.79,1.79,0,0,1,.12-.67,4.31,4.31,0,0,1,.3-.61,1.89,1.89,0,0,0-1.59,1,5.86,5.86,0,0,0-.39,2.36q.06,1.26.06,1.85a9.7,9.7,0,0,1,3.69,3,7.16,7.16,0,0,1,1.35,4.32,7,7,0,0,1-3.48,6,12.29,12.29,0,0,1-7,2.1,14.21,14.21,0,0,1-5.22-1,7.5,7.5,0,0,0-3.38.66,3.07,3.07,0,0,0-1.72,2.94q0,.9,1.5,1.38a18.91,18.91,0,0,0,5.62.54h3.47q5.33,0,8.08,1.44a6.23,6.23,0,0,1,3.47,6,8.09,8.09,0,0,1-3.15,6.84,13.26,13.26,0,0,1-8.25,2.4q-6.06,0-9.66-2t-3.6-4.59a3.29,3.29,0,0,1,2-2.82,21.08,21.08,0,0,1,4.32-1.62,12.84,12.84,0,0,1-3.9-2,4.9,4.9,0,0,1-1.74-3.9,5.85,5.85,0,0,1,1.5-4.14A5.52,5.52,0,0,1,7145.08,7074.51Zm7.2,22.2a10.25,10.25,0,0,0,6.29-1.69,5,5,0,0,0,2.24-4.1q0-2.9-1.82-3.92t-6.72-1q-5.62,0-7.71,1.32a4,4,0,0,0-1.74,3.72,4.77,4.77,0,0,0,1.43,3.78Q7146.43,7096.71,7152.27,7096.71Zm4.32-29.1a12.43,12.43,0,0,0-1-5.68,4.24,4.24,0,0,0-4.09-2.24,4.15,4.15,0,0,0-3.88,2.12,11.69,11.69,0,0,0-1.22,5.8q0,4.23,1,6t4.06,1.81a4.25,4.25,0,0,0,3.91-1.9Q7156.6,7071.66,7156.6,7067.61Z" transform="translate(-7004.56 -6923.03)"/><path d="M7208.14,7084.71h-28v-.6q6.3,0,7.56-.48a1.55,1.55,0,0,0,.84-.69,6,6,0,0,0,.24-2.2v-30.88a6,6,0,0,0-.24-2.17q-.12-.24-.78-.48-1.74-.66-7.62-.66V7046h24.54q6.48,0,10.32,3.48,3.06,2.76,3.06,5.7a7.2,7.2,0,0,1-1.85,5.4q-2.45,2.46-9.27,3.48,7.18.9,10.53,4.14a9,9,0,0,1,2.75,6.78,8.63,8.63,0,0,1-3.12,6.3A12.55,12.55,0,0,1,7208.14,7084.71Zm-11.94-20.88h5.56q4.36,0,6.45-1.63,2.51-1.93,2.51-6.46,0-5.08-2-7.13t-6.87-2.05h-2.87a6.89,6.89,0,0,0-1.85.18,1,1,0,0,0-.75.79,11.88,11.88,0,0,0-.15,2.36Zm7.11.54h-7.11v16.37a7.37,7.37,0,0,0,.21,2.29,1.51,1.51,0,0,0,.9.75,5.88,5.88,0,0,0,1.81.33q1.11.06,5.21.06,4.27,0,6.38-2.59a10.07,10.07,0,0,0,1.93-6.56q0-5-2.23-7.7Q7208,7064.37,7203.3,7064.37Z" transform="translate(-7004.56 -6923.03)"/><path d="M7238.55,7067.29v-3.5a5,5,0,0,0-.77-3.25q-.77-.84-3.3-.84a7.84,7.84,0,0,0-3.62.8,3.9,3.9,0,0,0-2,2.14,2.58,2.58,0,0,1,.6-.06,2.27,2.27,0,0,1,1.86.9,3.18,3.18,0,0,1,.72,2,2.81,2.81,0,0,1-.91,2.16,3,3,0,0,1-2.12.84,2.38,2.38,0,0,1-1.39-.42,3.35,3.35,0,0,1-1.76-2.88,6.16,6.16,0,0,1,.36-1.92q.84-2.34,4.2-3.42a15.64,15.64,0,0,1,4.86-.78q4.44,0,6.72,1.68a4.51,4.51,0,0,1,2,3.77v13.23a30.52,30.52,0,0,0,.18,4.43q.42,2,2.16,2a2.08,2.08,0,0,0,2.1-1.61,15.38,15.38,0,0,0,.54-4.65q0-.83,0-1.67t0-1.73V7074h.72v2.64q0,1.26.06,2.4,0,3.48-.84,4.68-1.09,1.5-4.4,1.5a6.75,6.75,0,0,1-3.86-.89,5.45,5.45,0,0,1-2-3.63,6.93,6.93,0,0,1-3.78,3.92,11.17,11.17,0,0,1-4,.59,7.89,7.89,0,0,1-4.38-1.2,5.42,5.42,0,0,1-2.58-4.93,7,7,0,0,1,2.51-5.47,10.4,10.4,0,0,1,6.09-2.46,14.43,14.43,0,0,0,4.84-1Q7238.55,7069.57,7238.55,7067.29Zm-.18,10.85v-8a3.1,3.1,0,0,1-2.13,1.18l-2.73.39a4.51,4.51,0,0,0-2.76,1.93,9.11,9.11,0,0,0-1.2,5.06,10.92,10.92,0,0,0,.69,4.73,2.33,2.33,0,0,0,2.19,1.24,5.59,5.59,0,0,0,4.11-1.9A6.4,6.4,0,0,0,7238.37,7078.14Z" transform="translate(-7004.56 -6923.03)"/><path d="M7265.19,7061q2.34-1.74,2.46-1.86v9l-.48-.12a12.48,12.48,0,0,0-3-5.88,7,7,0,0,0-5.16-2.46,6.73,6.73,0,0,0-3.54.84,4.09,4.09,0,0,0-1.86,3.78,3.72,3.72,0,0,0,2,3.36,24.18,24.18,0,0,0,5.74,1.86,16.14,16.14,0,0,1,6,2.4q2.45,1.92,2.45,6.12a6.56,6.56,0,0,1-2.64,5.76,8.86,8.86,0,0,1-5.28,1.5,13.94,13.94,0,0,1-3.78-.36,9.51,9.51,0,0,1-3.66-2.58q-2.4,2.82-2.52,2.94v-10.62h.42a38.39,38.39,0,0,0,1.69,5.16,9.29,9.29,0,0,0,1.93,2.94,6.35,6.35,0,0,0,2.62,1.65,15.42,15.42,0,0,0,3.71.33,4.78,4.78,0,0,0,3.07-1,3.88,3.88,0,0,0,1.45-3.24,4.54,4.54,0,0,0-1.93-4,15.9,15.9,0,0,0-5.33-1.8,13.43,13.43,0,0,1-5.93-2.52,6.89,6.89,0,0,1-2.53-5.58,7.34,7.34,0,0,1,2.13-5.31,7,7,0,0,1,5.19-2.19,9.91,9.91,0,0,1,4.08.78A21.49,21.49,0,0,0,7265.19,7061Z" transform="translate(-7004.56 -6923.03)"/><path d="M7288.78,7071.93v2.76q0,1.38.06,2.64,0,4.2-1,5.76-1.32,2.16-5.1,2.16-3.6,0-5.28-1.74a6.88,6.88,0,0,1-1.68-5v-17H7271V7061a11.19,11.19,0,0,0,7.42-5.72,16.49,16.49,0,0,0,2-8.14h1v12.66h6.9v1.74h-6.9v16.28a22.53,22.53,0,0,0,.24,4.19,2.6,2.6,0,0,0,2.65,2.27,3.15,3.15,0,0,0,3.18-2.63,28.41,28.41,0,0,0,.53-6.81v-2.87Z" transform="translate(-7004.56 -6923.03)"/><path d="M7305.81,7067.29v-3.5a5,5,0,0,0-.77-3.25q-.77-.84-3.3-.84a7.84,7.84,0,0,0-3.62.8,3.9,3.9,0,0,0-2,2.14,2.58,2.58,0,0,1,.6-.06,2.27,2.27,0,0,1,1.86.9,3.18,3.18,0,0,1,.72,2,2.81,2.81,0,0,1-.91,2.16,3,3,0,0,1-2.12.84,2.38,2.38,0,0,1-1.39-.42,3.35,3.35,0,0,1-1.76-2.88,6.16,6.16,0,0,1,.36-1.92q.84-2.34,4.2-3.42a15.64,15.64,0,0,1,4.86-.78q4.44,0,6.72,1.68a4.51,4.51,0,0,1,2,3.77v13.23a30.52,30.52,0,0,0,.18,4.43q.42,2,2.16,2a2.08,2.08,0,0,0,2.1-1.61,15.38,15.38,0,0,0,.54-4.65q0-.83,0-1.67t0-1.73V7074h.72v2.64q0,1.26.06,2.4,0,3.48-.84,4.68-1.09,1.5-4.4,1.5a6.75,6.75,0,0,1-3.86-.89,5.45,5.45,0,0,1-2-3.63,6.93,6.93,0,0,1-3.78,3.92,11.17,11.17,0,0,1-4,.59,7.89,7.89,0,0,1-4.38-1.2,5.42,5.42,0,0,1-2.58-4.93,7,7,0,0,1,2.51-5.47,10.4,10.4,0,0,1,6.09-2.46,14.43,14.43,0,0,0,4.84-1Q7305.81,7069.57,7305.81,7067.29Zm-.18,10.85v-8a3.1,3.1,0,0,1-2.13,1.18l-2.73.39a4.51,4.51,0,0,0-2.76,1.93,9.11,9.11,0,0,0-1.2,5.06,10.92,10.92,0,0,0,.69,4.73,2.33,2.33,0,0,0,2.19,1.24,5.59,5.59,0,0,0,4.11-1.9A6.4,6.4,0,0,0,7305.63,7078.14Z" transform="translate(-7004.56 -6923.03)"/><path d="M7323.87,7063.07a2.92,2.92,0,0,0-.24-1.51,1.8,1.8,0,0,0-.78-.73,23.94,23.94,0,0,0-4.92-.3V7060l11.58-.9v7.62a10,10,0,0,1,1.68-4.62,5.83,5.83,0,0,1,5-3,5,5,0,0,1,2.46.75,3.83,3.83,0,0,1,1.77,1.89,5.65,5.65,0,0,1,.45,2,3.3,3.3,0,0,1-2,3.3,2.87,2.87,0,0,1-1.27.24,2.81,2.81,0,0,1-2.06-.84,3.4,3.4,0,0,1-.85-2.52,3.56,3.56,0,0,1,.82-2.16,1.81,1.81,0,0,1,1.91-.84q-.36-1.26-2.15-1.26t-3.46,2.53a14.33,14.33,0,0,0-2.27,8.38v11.22a4.26,4.26,0,0,0,.18,1.57,1.23,1.23,0,0,0,.54.36,20.2,20.2,0,0,0,5.22.42v.54h-17.52v-.54q1.74,0,3.15-.12a9.81,9.81,0,0,0,2.43-.48q.36-.3.36-1.75Z" transform="translate(-7004.56 -6923.03)"/><path d="M7358.55,7076.39a11.1,11.1,0,0,1-1.44,5.51,5.7,5.7,0,0,1-5.16,3.35,9,9,0,0,1-7.14-3.3q-3.06-3.6-3.06-9.9a14.06,14.06,0,0,1,2.82-8.28q3.3-4.68,8.34-4.68,2.7,0,4.26,3a13.43,13.43,0,0,1,1.38,4.6v-17a2.92,2.92,0,0,0-.36-1.68,1.58,1.58,0,0,0-1-.6,44.81,44.81,0,0,0-6.72-.3v-.54l13.74-1v35.7a4.23,4.23,0,0,0,.18,1.56,1.23,1.23,0,0,0,.54.36,18.48,18.48,0,0,0,4.92.42v.54l-11.28,1.14Zm-.3-4.4q0-6-1.38-9.16t-3.78-3.14a4,4,0,0,0-4,2.68q-1.11,2.68-1.11,9.74a40.57,40.57,0,0,0,.66,8.92q1,3.68,4,3.68,2,0,3.66-3.08A20.32,20.32,0,0,0,7358.25,7072Z" transform="translate(-7004.56 -6923.03)"/><path d="M7385.49,7061q2.34-1.74,2.46-1.86v9l-.48-.12a12.48,12.48,0,0,0-3-5.88,7,7,0,0,0-5.16-2.46,6.73,6.73,0,0,0-3.54.84,4.09,4.09,0,0,0-1.86,3.78,3.72,3.72,0,0,0,2,3.36,24.18,24.18,0,0,0,5.74,1.86,16.14,16.14,0,0,1,6,2.4q2.45,1.92,2.45,6.12a6.56,6.56,0,0,1-2.64,5.76,8.86,8.86,0,0,1-5.28,1.5,13.94,13.94,0,0,1-3.78-.36,9.51,9.51,0,0,1-3.66-2.58q-2.4,2.82-2.52,2.94v-10.62h.42a38.39,38.39,0,0,0,1.69,5.16,9.29,9.29,0,0,0,1.93,2.94,6.35,6.35,0,0,0,2.62,1.65,15.42,15.42,0,0,0,3.71.33,4.78,4.78,0,0,0,3.07-1,3.88,3.88,0,0,0,1.45-3.24,4.54,4.54,0,0,0-1.93-4,15.9,15.9,0,0,0-5.33-1.8,13.43,13.43,0,0,1-5.93-2.52,6.89,6.89,0,0,1-2.53-5.58,7.34,7.34,0,0,1,2.13-5.31,7,7,0,0,1,5.19-2.19,9.91,9.91,0,0,1,4.08.78A21.49,21.49,0,0,0,7385.49,7061Z" transform="translate(-7004.56 -6923.03)"/><path d="M7146.07,7125.37l-.84,2.54h-1.08l2.75-8.08h1.26l2.76,8.08h-1.12l-.86-2.54Zm2.65-.82-.79-2.33c-.18-.53-.3-1-.42-1.48h0c-.12.48-.25,1-.41,1.46l-.79,2.34Z" transform="translate(-7004.56 -6923.03)"/><path d="M7158.08,7127.55a7.53,7.53,0,0,1-2.48.44,3.8,3.8,0,0,1-4.15-4.08,4.05,4.05,0,0,1,4.38-4.17,5,5,0,0,1,2,.37l-.25.85a4.19,4.19,0,0,0-1.79-.35,3,3,0,0,0-3.25,3.25,3,3,0,0,0,3.12,3.26,3.4,3.4,0,0,0,1.39-.22v-2.41h-1.64v-.84h2.66Z" transform="translate(-7004.56 -6923.03)"/><path d="M7163.86,7124.12h-3.14V7127h3.5v.88h-4.55v-8.08H7164v.88h-3.32v2.55h3.14Zm-1.62-6.09,1.26,1.37h-.89l-.77-.83h0l-.76.83h-.86l1.24-1.37Z" transform="translate(-7004.56 -6923.03)"/><path d="M7165.58,7127.91v-8.08h1.14l2.59,4.09a22.86,22.86,0,0,1,1.45,2.63h0c-.1-1.08-.12-2.06-.12-3.32v-3.38h1v8.08h-1.06l-2.57-4.1a25.64,25.64,0,0,1-1.51-2.7h0c.06,1,.08,2,.08,3.33v3.45Z" transform="translate(-7004.56 -6923.03)"/><path d="M7179.13,7127.65a5.18,5.18,0,0,1-2.13.38,3.78,3.78,0,0,1-4-4.09,4,4,0,0,1,4.22-4.25,4.33,4.33,0,0,1,1.92.36l-.25.85a3.79,3.79,0,0,0-1.63-.34,3,3,0,0,0-3.15,3.33,2.94,2.94,0,0,0,3.11,3.25,4.18,4.18,0,0,0,1.7-.34Z" transform="translate(-7004.56 -6923.03)"/><path d="M7181.48,7119.83v8.08h-1v-8.08Z" transform="translate(-7004.56 -6923.03)"/><path d="M7184.61,7125.37l-.84,2.54h-1.08l2.75-8.08h1.26l2.76,8.08h-1.12l-.86-2.54Zm2.65-.82-.79-2.33c-.18-.53-.3-1-.42-1.48h0c-.12.48-.25,1-.41,1.46l-.79,2.34Z" transform="translate(-7004.56 -6923.03)"/><path d="M7193.19,7119.83h4.35v.88h-3.31v2.69h3.06v.86h-3.06v3.66h-1Z" transform="translate(-7004.56 -6923.03)"/><path d="M7200.08,7119.83v4.79c0,1.81.8,2.58,1.88,2.58s2-.79,2-2.58v-4.79H7205v4.71c0,2.48-1.31,3.5-3.06,3.5s-2.9-.95-2.9-3.45v-4.76Z" transform="translate(-7004.56 -6923.03)"/><path d="M7206.8,7127.91v-8.08h1.14l2.59,4.09a22.86,22.86,0,0,1,1.45,2.63h0c-.1-1.08-.12-2.06-.12-3.32v-3.38h1v8.08h-1.06l-2.57-4.1a25.83,25.83,0,0,1-1.51-2.7h0c.06,1,.08,2,.08,3.33v3.45Z" transform="translate(-7004.56 -6923.03)"/><path d="M7218.88,7124.12h-3.14V7127h3.5v.88h-4.55v-8.08h4.37v.88h-3.32v2.55h3.14Z" transform="translate(-7004.56 -6923.03)"/><path d="M7220.6,7119.93a10.87,10.87,0,0,1,2-.17,3.31,3.31,0,0,1,2.34.66,2,2,0,0,1,.64,1.54,2.12,2.12,0,0,1-1.52,2.06v0a2,2,0,0,1,1.19,1.63,12.83,12.83,0,0,0,.62,2.22h-1.08a10.36,10.36,0,0,1-.54-1.93c-.24-1.12-.67-1.54-1.62-1.57h-1v3.5h-1Zm1,3.68h1.07c1.12,0,1.82-.61,1.82-1.54s-.76-1.5-1.86-1.51a4.3,4.3,0,0,0-1,.1Z" transform="translate(-7004.56 -6923.03)"/><path d="M7228.43,7125.37l-.84,2.54h-1.08l2.75-8.08h1.26l2.76,8.08h-1.12l-.86-2.54Zm1-7.38,1.1,1.39h-.85l-1.54-1.39Zm1.67,6.56-.79-2.33c-.18-.53-.3-1-.42-1.48h0c-.12.48-.25,1-.41,1.46l-.79,2.34Z" transform="translate(-7004.56 -6923.03)"/><path d="M7234.46,7119.93a10.87,10.87,0,0,1,2-.17,3.31,3.31,0,0,1,2.34.66,2,2,0,0,1,.64,1.54,2.12,2.12,0,0,1-1.52,2.06v0a2,2,0,0,1,1.19,1.63,12.83,12.83,0,0,0,.62,2.22h-1.08a10.36,10.36,0,0,1-.54-1.93c-.24-1.12-.67-1.54-1.62-1.57h-1v3.5h-1Zm1,3.68h1.07c1.12,0,1.82-.61,1.82-1.54s-.76-1.5-1.86-1.51a4.3,4.3,0,0,0-1,.1Z" transform="translate(-7004.56 -6923.03)"/><path d="M7242,7119.83v8.08h-1v-8.08Z" transform="translate(-7004.56 -6923.03)"/><path d="M7245.09,7125.37l-.84,2.54h-1.08l2.75-8.08h1.26l2.76,8.08h-1.12l-.86-2.54Zm2.65-.82-.79-2.33c-.18-.53-.3-1-.42-1.48h0c-.12.48-.25,1-.41,1.46l-.79,2.34Z" transform="translate(-7004.56 -6923.03)"/><path class="cls-1" d="M7226.17,6969.87q2.51-1.93,2.51-6.46,0-5.08-2-7.13t-6.87-2.05h-2.87a6.89,6.89,0,0,0-1.85.18,1,1,0,0,0-.75.79,11.88,11.88,0,0,0-.15,2.36v14h5.56Q7224.07,6971.5,7226.17,6969.87Z" transform="translate(-7004.56 -6923.03)"/><path class="cls-1" d="M7221.26,6972h-7.11v16.37a7.37,7.37,0,0,0,.21,2.29,1.51,1.51,0,0,0,.9.75,5.88,5.88,0,0,0,1.81.33q1.11.06,5.21.06,4.27,0,6.38-2.59a10.07,10.07,0,0,0,1.93-6.56q0-5-2.23-7.7Q7226,6972,7221.26,6972Z" transform="translate(-7004.56 -6923.03)"/><path class="cls-1" d="M7197.37,6923a50,50,0,1,0,50,50A50,50,0,0,0,7197.37,6923Zm-3.77,45.65h-.78a18,18,0,0,0-2.33-8.86q-3.11-5.6-8.79-5.6-3.89,0-5.47.12a15.21,15.21,0,0,0-3.2.6l-.54.24a4.12,4.12,0,0,0-.42,2.42v14.08q6.38,0,7.94-1.26,2.51-2,3.22-10.32h.72v23.64h-.72q0-8.1-2.75-10.14-1.73-1.32-8.41-1.32v16.13a6.25,6.25,0,0,0,.24,2.23q.12.24.84.51a12.37,12.37,0,0,0,2.79.45q2.07.18,5.61.18v.6h-25v-.6q2.58,0,4.47-.18a11,11,0,0,0,2.58-.45,1.66,1.66,0,0,0,.9-.66,5.89,5.89,0,0,0,.21-2.08v-30.82a5.72,5.72,0,0,0-.24-2.17q-.12-.24-.81-.48a15.4,15.4,0,0,0-2.7-.48,37.21,37.21,0,0,0-4.41-.24v-.54h37.08Zm32.5,23.7h-28v-.6q6.3,0,7.56-.48a1.55,1.55,0,0,0,.84-.69,6,6,0,0,0,.24-2.2v-30.88a6,6,0,0,0-.24-2.17q-.12-.24-.78-.48-1.74-.66-7.62-.66v-.54h24.54q6.48,0,10.32,3.48,3.06,2.76,3.06,5.7a7.2,7.2,0,0,1-1.85,5.4q-2.45,2.46-9.27,3.48,7.18.9,10.53,4.14a9,9,0,0,1,2.75,6.78,8.63,8.63,0,0,1-3.12,6.3A12.55,12.55,0,0,1,7226.09,6992.38Z" transform="translate(-7004.56 -6923.03)"/></svg>